<svg width="248" height="46" viewBox="0 0 248 46" fill="none" xmlns="http://www.w3.org/2000/svg">
<rect width="46" height="46" rx="8" fill="#212529"/>
<path d="M12.0713 34.0714V23.0714H17.5713V34.0714H12.0713ZM20.3213 34.0714V12.0714H25.8213V34.0714H20.3213ZM28.5713 34.0714V18.9464H34.0713V34.0714H28.5713Z" fill="white"/>
<path d="M82.875 11.2188V34.5H80.0625V11.2188H82.875ZM89.3125 24V34.5H86.6562V17.0312H89.2188V19.7812H89.4688C89.875 18.8854 90.4948 18.1667 91.3281 17.625C92.1615 17.0833 93.2396 16.8125 94.5625 16.8125C95.7396 16.8125 96.7708 17.0521 97.6562 17.5312C98.5417 18.0104 99.2292 18.7396 99.7188 19.7188C100.219 20.6875 100.469 21.9167 100.469 23.4062V34.5H97.8125V23.5938C97.8125 22.2292 97.4531 21.1615 96.7344 20.3906C96.0156 19.6094 95.0365 19.2188 93.7969 19.2188C92.9427 19.2188 92.1771 19.4062 91.5 19.7812C90.8229 20.1562 90.2865 20.6979 89.8906 21.4062C89.5052 22.1146 89.3125 22.9792 89.3125 24ZM110.969 34.875C109.396 34.875 108.016 34.5 106.828 33.75C105.641 33 104.714 31.9479 104.047 30.5938C103.391 29.2396 103.062 27.6667 103.062 25.875C103.062 24.0521 103.391 22.4635 104.047 21.1094C104.714 19.7448 105.641 18.6875 106.828 17.9375C108.016 17.1875 109.396 16.8125 110.969 16.8125C112.552 16.8125 113.938 17.1875 115.125 17.9375C116.312 18.6875 117.24 19.7448 117.906 21.1094C118.573 22.4635 118.906 24.0521 118.906 25.875C118.906 27.6667 118.573 29.2396 117.906 30.5938C117.24 31.9479 116.312 33 115.125 33.75C113.938 34.5 112.552 34.875 110.969 34.875ZM110.969 32.4688C112.177 32.4688 113.167 32.1615 113.938 31.5469C114.708 30.9323 115.281 30.125 115.656 29.125C116.031 28.1146 116.219 27.0312 116.219 25.875C116.219 24.6979 116.031 23.6042 115.656 22.5938C115.281 21.5833 114.708 20.7708 113.938 20.1562C113.167 19.5312 112.177 19.2188 110.969 19.2188C109.781 19.2188 108.802 19.5312 108.031 20.1562C107.26 20.7708 106.688 21.5833 106.312 22.5938C105.938 23.6042 105.75 24.6979 105.75 25.875C105.75 27.0312 105.938 28.1146 106.312 29.125C106.688 30.125 107.26 30.9323 108.031 31.5469C108.802 32.1615 109.781 32.4688 110.969 32.4688ZM135.125 17.0312L128.688 34.5H125.938L119.5 17.0312H122.406L127.219 30.9688H127.406L132.219 17.0312H135.125ZM141.781 34.9062C140.677 34.9062 139.672 34.6979 138.766 34.2812C137.859 33.8542 137.141 33.2396 136.609 32.4375C136.078 31.6354 135.812 30.6667 135.812 29.5312C135.812 28.5312 136.01 27.724 136.406 27.1094C136.802 26.4844 137.328 25.9948 137.984 25.6406C138.651 25.276 139.38 25.0052 140.172 24.8281C140.974 24.651 141.781 24.5104 142.594 24.4062C143.656 24.2708 144.516 24.1667 145.172 24.0938C145.839 24.0208 146.323 23.8958 146.625 23.7188C146.938 23.5417 147.094 23.2396 147.094 22.8125V22.7188C147.094 21.6042 146.786 20.7396 146.172 20.125C145.568 19.5 144.646 19.1875 143.406 19.1875C142.135 19.1875 141.135 19.4688 140.406 20.0312C139.677 20.5833 139.167 21.1771 138.875 21.8125L136.312 20.9062C136.771 19.8438 137.38 19.0156 138.141 18.4219C138.911 17.8281 139.745 17.4115 140.641 17.1719C141.547 16.9323 142.438 16.8125 143.312 16.8125C143.875 16.8125 144.521 16.8802 145.25 17.0156C145.979 17.1406 146.688 17.4115 147.375 17.8281C148.073 18.2344 148.646 18.8542 149.094 19.6875C149.552 20.5104 149.781 21.6146 149.781 23V34.5H147.094V32.125H146.969C146.792 32.5 146.49 32.9062 146.062 33.3438C145.635 33.7708 145.068 34.1406 144.359 34.4531C143.661 34.7552 142.802 34.9062 141.781 34.9062ZM142.188 32.5C143.25 32.5 144.146 32.2917 144.875 31.875C145.604 31.4583 146.156 30.9219 146.531 30.2656C146.906 29.599 147.094 28.9062 147.094 28.1875V25.7188C146.979 25.8542 146.729 25.9792 146.344 26.0938C145.969 26.1979 145.531 26.2917 145.031 26.375C144.542 26.4583 144.062 26.5312 143.594 26.5938C143.125 26.6458 142.75 26.6875 142.469 26.7188C141.771 26.8125 141.12 26.9635 140.516 27.1719C139.911 27.3698 139.422 27.6667 139.047 28.0625C138.682 28.4583 138.5 29 138.5 29.6875C138.5 30.6146 138.844 31.3177 139.531 31.7969C140.229 32.2656 141.115 32.5 142.188 32.5ZM160.781 17.0312V19.3125H151.75V17.0312H160.781ZM154.375 12.875H157.031V29.5C157.031 30.4062 157.219 31.0729 157.594 31.5C157.969 31.9167 158.562 32.125 159.375 32.125C159.552 32.125 159.734 32.1146 159.922 32.0938C160.12 32.0729 160.333 32.0417 160.562 32L161.125 34.4062C160.875 34.5 160.568 34.5729 160.203 34.625C159.849 34.6875 159.49 34.7188 159.125 34.7188C157.719 34.7188 156.573 34.3021 155.688 33.4688C154.812 32.6354 154.375 31.5521 154.375 30.2188V12.875ZM163.344 34.5V17.0312H166V34.5H163.344ZM164.688 14.125C164.167 14.125 163.719 13.9479 163.344 13.5938C162.969 13.2396 162.781 12.8125 162.781 12.3125C162.781 11.8125 162.969 11.3854 163.344 11.0312C163.719 10.6771 164.167 10.5 164.688 10.5C165.208 10.5 165.656 10.6771 166.031 11.0312C166.406 11.3854 166.594 11.8125 166.594 12.3125C166.594 12.8125 166.406 13.2396 166.031 13.5938C165.656 13.9479 165.208 14.125 164.688 14.125ZM176.5 34.875C174.927 34.875 173.547 34.5 172.359 33.75C171.172 33 170.245 31.9479 169.578 30.5938C168.922 29.2396 168.594 27.6667 168.594 25.875C168.594 24.0521 168.922 22.4635 169.578 21.1094C170.245 19.7448 171.172 18.6875 172.359 17.9375C173.547 17.1875 174.927 16.8125 176.5 16.8125C178.083 16.8125 179.469 17.1875 180.656 17.9375C181.844 18.6875 182.771 19.7448 183.438 21.1094C184.104 22.4635 184.438 24.0521 184.438 25.875C184.438 27.6667 184.104 29.2396 183.438 30.5938C182.771 31.9479 181.844 33 180.656 33.75C179.469 34.5 178.083 34.875 176.5 34.875ZM176.5 32.4688C177.708 32.4688 178.698 32.1615 179.469 31.5469C180.24 30.9323 180.812 30.125 181.188 29.125C181.562 28.1146 181.75 27.0312 181.75 25.875C181.75 24.6979 181.562 23.6042 181.188 22.5938C180.812 21.5833 180.24 20.7708 179.469 20.1562C178.698 19.5312 177.708 19.2188 176.5 19.2188C175.312 19.2188 174.333 19.5312 173.562 20.1562C172.792 20.7708 172.219 21.5833 171.844 22.5938C171.469 23.6042 171.281 24.6979 171.281 25.875C171.281 27.0312 171.469 28.1146 171.844 29.125C172.219 30.125 172.792 30.9323 173.562 31.5469C174.333 32.1615 175.312 32.4688 176.5 32.4688ZM189.688 24V34.5H187.031V17.0312H189.594V19.7812H189.844C190.25 18.8854 190.87 18.1667 191.703 17.625C192.536 17.0833 193.615 16.8125 194.938 16.8125C196.115 16.8125 197.146 17.0521 198.031 17.5312C198.917 18.0104 199.604 18.7396 200.094 19.7188C200.594 20.6875 200.844 21.9167 200.844 23.4062V34.5H198.188V23.5938C198.188 22.2292 197.828 21.1615 197.109 20.3906C196.391 19.6094 195.411 19.2188 194.172 19.2188C193.318 19.2188 192.552 19.4062 191.875 19.7812C191.198 20.1562 190.661 20.6979 190.266 21.4062C189.88 22.1146 189.688 22.9792 189.688 24Z" fill="#212529"/>
</svg>
