<svg width="248" height="46" viewBox="0 0 248 46" fill="none" xmlns="http://www.w3.org/2000/svg">
<rect width="46" height="46" rx="8" fill="#212529"/>
<path d="M6 30.75V28.5844C6 27.599 6.50417 26.7969 7.5125 26.1781C8.52083 25.5594 9.85 25.25 11.5 25.25C11.7979 25.25 12.0844 25.256 12.3594 25.2679C12.6344 25.2798 12.8979 25.3082 13.15 25.3531C12.8292 25.8344 12.5885 26.3385 12.4281 26.8656C12.2677 27.3927 12.1875 27.9427 12.1875 28.5156V30.75H6ZM14.25 30.75V28.5156C14.25 27.7823 14.4508 27.1118 14.8523 26.504C15.2537 25.8963 15.8207 25.3637 16.5531 24.9063C17.2865 24.4479 18.1632 24.1042 19.1835 23.875C20.2038 23.6458 21.3092 23.5313 22.5 23.5313C23.7146 23.5313 24.832 23.6458 25.8522 23.875C26.8725 24.1042 27.7488 24.4479 28.4813 24.9063C29.2146 25.3646 29.776 25.8976 30.1656 26.5054C30.5552 27.1131 30.75 27.7832 30.75 28.5156V30.75H14.25ZM32.8125 30.75V28.5156C32.8125 27.9198 32.7378 27.3583 32.5884 26.8313C32.439 26.3042 32.2157 25.8115 31.9188 25.3531C32.1708 25.3073 32.4289 25.2789 32.6929 25.2679C32.9569 25.2569 33.2259 25.2509 33.5 25.25C35.15 25.25 36.4792 25.5539 37.4875 26.1616C38.4958 26.7694 39 27.577 39 28.5844V30.75H32.8125ZM11.5 23.875C10.7438 23.875 10.0961 23.6055 9.55712 23.0665C9.01812 22.5275 8.74908 21.8803 8.75 21.125C8.75 20.3458 9.0195 19.6927 9.5585 19.1656C10.0975 18.6385 10.7447 18.375 11.5 18.375C12.2792 18.375 12.9323 18.6385 13.4594 19.1656C13.9865 19.6927 14.25 20.3458 14.25 21.125C14.25 21.8813 13.9865 22.5289 13.4594 23.0679C12.9323 23.6069 12.2792 23.8759 11.5 23.875ZM33.5 23.875C32.7437 23.875 32.0961 23.6055 31.5571 23.0665C31.0181 22.5275 30.7491 21.8803 30.75 21.125C30.75 20.3458 31.0195 19.6927 31.5585 19.1656C32.0975 18.6385 32.7447 18.375 33.5 18.375C34.2792 18.375 34.9323 18.6385 35.4594 19.1656C35.9865 19.6927 36.25 20.3458 36.25 21.125C36.25 21.8813 35.9865 22.5289 35.4594 23.0679C34.9323 23.6069 34.2792 23.8759 33.5 23.875ZM22.5 22.5C21.3542 22.5 20.3802 22.099 19.5781 21.2969C18.776 20.4948 18.375 19.5208 18.375 18.375C18.375 17.2063 18.776 16.2263 19.5781 15.4353C20.3802 14.6442 21.3542 14.2491 22.5 14.25C23.6688 14.25 24.6487 14.6455 25.4397 15.4366C26.2308 16.2277 26.6259 17.2072 26.625 18.375C26.625 19.5208 26.2295 20.4948 25.4384 21.2969C24.6473 22.099 23.6678 22.5 22.5 22.5Z" fill="white"/>
<path d="M80.0625 34.5V11.2188H94.125V13.7188H82.875V21.5H93.375V24H82.875V32H94.2812V34.5H80.0625ZM99.3438 17.0312L103.5 24.1875L107.688 17.0312H110.781L105.156 25.7812L110.781 34.5H107.688L103.5 27.7188L99.3438 34.5H96.25L101.781 25.7812L96.25 17.0312H99.3438ZM113.125 41.0312V17.0312H115.688V19.8125H116C116.198 19.5104 116.474 19.125 116.828 18.6562C117.182 18.1771 117.693 17.75 118.359 17.375C119.026 17 119.927 16.8125 121.062 16.8125C122.531 16.8125 123.823 17.1823 124.938 17.9219C126.052 18.651 126.922 19.6927 127.547 21.0469C128.182 22.3906 128.5 23.9792 128.5 25.8125C128.5 27.6562 128.188 29.2604 127.562 30.625C126.938 31.9792 126.068 33.026 124.953 33.7656C123.839 34.5052 122.552 34.875 121.094 34.875C119.979 34.875 119.083 34.6875 118.406 34.3125C117.729 33.9271 117.208 33.4948 116.844 33.0156C116.479 32.526 116.198 32.125 116 31.8125H115.781V41.0312H113.125ZM120.75 32.4688C121.865 32.4688 122.797 32.1719 123.547 31.5781C124.297 30.974 124.859 30.1667 125.234 29.1562C125.62 28.1458 125.812 27.0208 125.812 25.7812C125.812 24.5521 125.625 23.4427 125.25 22.4531C124.875 21.4635 124.312 20.6771 123.562 20.0938C122.823 19.5104 121.885 19.2188 120.75 19.2188C119.656 19.2188 118.74 19.4948 118 20.0469C117.26 20.5885 116.698 21.3542 116.312 22.3438C115.938 23.3229 115.75 24.4688 115.75 25.7812C115.75 27.0938 115.943 28.2552 116.328 29.2656C116.714 30.2656 117.276 31.0521 118.016 31.625C118.766 32.1875 119.677 32.4688 120.75 32.4688ZM138.406 34.875C136.729 34.875 135.276 34.5 134.047 33.75C132.828 33 131.891 31.9531 131.234 30.6094C130.578 29.2552 130.25 27.6875 130.25 25.9062C130.25 24.1146 130.573 22.5365 131.219 21.1719C131.865 19.8073 132.771 18.7396 133.938 17.9688C135.115 17.1979 136.49 16.8125 138.062 16.8125C138.969 16.8125 139.87 16.9635 140.766 17.2656C141.661 17.5677 142.474 18.0573 143.203 18.7344C143.943 19.4115 144.531 20.3073 144.969 21.4219C145.406 22.5365 145.625 23.9062 145.625 25.5312V26.6875H132.156V24.375H144.172L142.938 25.25C142.938 24.0833 142.755 23.0469 142.391 22.1406C142.026 21.2344 141.479 20.5208 140.75 20C140.031 19.4792 139.135 19.2188 138.062 19.2188C136.99 19.2188 136.068 19.4844 135.297 20.0156C134.536 20.5365 133.953 21.2188 133.547 22.0625C133.141 22.9062 132.938 23.8125 132.938 24.7812V26.3125C132.938 27.6354 133.167 28.7552 133.625 29.6719C134.083 30.5885 134.724 31.2865 135.547 31.7656C136.37 32.2344 137.323 32.4688 138.406 32.4688C139.104 32.4688 139.74 32.3698 140.312 32.1719C140.885 31.9635 141.38 31.6562 141.797 31.25C142.214 30.8333 142.531 30.3229 142.75 29.7188L145.344 30.4688C145.073 31.3438 144.615 32.1146 143.969 32.7812C143.333 33.4375 142.542 33.9531 141.594 34.3281C140.646 34.6927 139.583 34.875 138.406 34.875ZM148.156 34.5V17.0312H150.719V19.6875H150.906C151.229 18.8229 151.807 18.125 152.641 17.5938C153.484 17.0521 154.427 16.7812 155.469 16.7812C155.667 16.7812 155.911 16.7865 156.203 16.7969C156.495 16.7969 156.719 16.8021 156.875 16.8125V19.5312C156.781 19.5104 156.573 19.4792 156.25 19.4375C155.927 19.3958 155.583 19.375 155.219 19.375C154.375 19.375 153.62 19.5521 152.953 19.9062C152.286 20.2604 151.76 20.7448 151.375 21.3594C151 21.974 150.812 22.6771 150.812 23.4688V34.5H148.156ZM167.219 17.0312V19.3125H158.188V17.0312H167.219ZM160.812 12.875H163.469V29.5C163.469 30.4062 163.656 31.0729 164.031 31.5C164.406 31.9167 165 32.125 165.812 32.125C165.99 32.125 166.172 32.1146 166.359 32.0938C166.557 32.0729 166.771 32.0417 167 32L167.562 34.4062C167.312 34.5 167.005 34.5729 166.641 34.625C166.286 34.6875 165.927 34.7188 165.562 34.7188C164.156 34.7188 163.01 34.3021 162.125 33.4688C161.25 32.6354 160.812 31.5521 160.812 30.2188V12.875ZM169.781 34.5V17.0312H172.438V34.5H169.781ZM171.125 14.125C170.604 14.125 170.156 13.9479 169.781 13.5938C169.406 13.2396 169.219 12.8125 169.219 12.3125C169.219 11.8125 169.406 11.3854 169.781 11.0312C170.156 10.6771 170.604 10.5 171.125 10.5C171.646 10.5 172.094 10.6771 172.469 11.0312C172.844 11.3854 173.031 11.8125 173.031 12.3125C173.031 12.8125 172.844 13.2396 172.469 13.5938C172.094 13.9479 171.646 14.125 171.125 14.125ZM188.219 20.9688L185.812 21.625C185.583 21.0312 185.188 20.4688 184.625 19.9375C184.073 19.3958 183.208 19.125 182.031 19.125C180.969 19.125 180.083 19.375 179.375 19.875C178.667 20.3646 178.312 20.9792 178.312 21.7188C178.312 22.3854 178.552 22.9167 179.031 23.3125C179.521 23.7083 180.281 24.0312 181.312 24.2812L183.906 24.9062C185.458 25.2812 186.615 25.8594 187.375 26.6406C188.146 27.4219 188.531 28.4167 188.531 29.625C188.531 30.625 188.245 31.5208 187.672 32.3125C187.099 33.1042 186.302 33.7292 185.281 34.1875C184.26 34.6458 183.073 34.875 181.719 34.875C179.938 34.875 178.464 34.4844 177.297 33.7031C176.141 32.9219 175.406 31.7917 175.094 30.3125L177.625 29.6875C177.865 30.625 178.323 31.3281 179 31.7969C179.688 32.2656 180.583 32.5 181.688 32.5C182.927 32.5 183.917 32.2344 184.656 31.7031C185.406 31.1615 185.781 30.5208 185.781 29.7812C185.781 28.5521 184.917 27.7292 183.188 27.3125L180.281 26.625C178.677 26.2396 177.5 25.651 176.75 24.8594C176 24.0677 175.625 23.0729 175.625 21.875C175.625 20.8854 175.901 20.0104 176.453 19.25C177.016 18.4896 177.781 17.8958 178.75 17.4688C179.719 17.0312 180.812 16.8125 182.031 16.8125C183.771 16.8125 185.13 17.1979 186.109 17.9688C187.099 18.7292 187.802 19.7292 188.219 20.9688ZM198.406 34.875C196.729 34.875 195.276 34.5 194.047 33.75C192.828 33 191.891 31.9531 191.234 30.6094C190.578 29.2552 190.25 27.6875 190.25 25.9062C190.25 24.1146 190.573 22.5365 191.219 21.1719C191.865 19.8073 192.771 18.7396 193.938 17.9688C195.115 17.1979 196.49 16.8125 198.062 16.8125C198.969 16.8125 199.87 16.9635 200.766 17.2656C201.661 17.5677 202.474 18.0573 203.203 18.7344C203.943 19.4115 204.531 20.3073 204.969 21.4219C205.406 22.5365 205.625 23.9062 205.625 25.5312V26.6875H192.156V24.375H204.172L202.938 25.25C202.938 24.0833 202.755 23.0469 202.391 22.1406C202.026 21.2344 201.479 20.5208 200.75 20C200.031 19.4792 199.135 19.2188 198.062 19.2188C196.99 19.2188 196.068 19.4844 195.297 20.0156C194.536 20.5365 193.953 21.2188 193.547 22.0625C193.141 22.9062 192.938 23.8125 192.938 24.7812V26.3125C192.938 27.6354 193.167 28.7552 193.625 29.6719C194.083 30.5885 194.724 31.2865 195.547 31.7656C196.37 32.2344 197.323 32.4688 198.406 32.4688C199.104 32.4688 199.74 32.3698 200.312 32.1719C200.885 31.9635 201.38 31.6562 201.797 31.25C202.214 30.8333 202.531 30.3229 202.75 29.7188L205.344 30.4688C205.073 31.3438 204.615 32.1146 203.969 32.7812C203.333 33.4375 202.542 33.9531 201.594 34.3281C200.646 34.6927 199.583 34.875 198.406 34.875Z" fill="#212529"/>
</svg>
