<svg width="248" height="46" viewBox="0 0 248 46" fill="none" xmlns="http://www.w3.org/2000/svg">
<rect width="46" height="46" rx="8" fill="#212529"/>
<path d="M23.5 29.7463L31.9975 34.875L29.7425 25.2087L37.25 18.705L27.3638 17.8525L23.5 8.75L19.6362 17.8525L9.75 18.705L17.2437 25.2087L15.0025 34.875L23.5 29.7463Z" fill="white"/>
<path d="M88.5312 27.2188H91.625L94.2188 30.625L94.875 31.5312L98.75 36.6875H95.6562L93.125 33.2812L92.4688 32.4062L88.5312 27.2188ZM89.4531 34.8125C87.474 34.8125 85.7083 34.3281 84.1562 33.3594C82.6042 32.3906 81.3802 31.0156 80.4844 29.2344C79.599 27.4427 79.1562 25.3229 79.1562 22.875C79.1562 20.4167 79.599 18.2917 80.4844 16.5C81.3802 14.7083 82.6042 13.3281 84.1562 12.3594C85.7083 11.3906 87.474 10.9062 89.4531 10.9062C91.4427 10.9062 93.2083 11.3906 94.75 12.3594C96.2917 13.3281 97.5052 14.7083 98.3906 16.5C99.276 18.2917 99.7188 20.4167 99.7188 22.875C99.7188 25.3229 99.276 27.4427 98.3906 29.2344C97.5052 31.0156 96.2917 32.3906 94.75 33.3594C93.2083 34.3281 91.4427 34.8125 89.4531 34.8125ZM89.4531 32.1875C90.8594 32.1875 92.1302 31.8333 93.2656 31.125C94.4115 30.4062 95.3177 29.3542 95.9844 27.9688C96.6615 26.5833 97 24.8854 97 22.875C97 20.8542 96.6615 19.151 95.9844 17.7656C95.3177 16.3698 94.4115 15.3177 93.2656 14.6094C92.1302 13.8906 90.8594 13.5312 89.4531 13.5312C88.0469 13.5312 86.7708 13.8906 85.625 14.6094C84.4792 15.3177 83.5677 16.3698 82.8906 17.7656C82.2135 19.151 81.875 20.8542 81.875 22.875C81.875 24.8854 82.2135 26.5833 82.8906 27.9688C83.5677 29.3542 84.4792 30.4062 85.625 31.125C86.7708 31.8333 88.0469 32.1875 89.4531 32.1875ZM113.594 27.375V17.0312H116.25V34.5H113.594V31.5312H113.406C112.99 32.4167 112.349 33.1719 111.484 33.7969C110.63 34.4219 109.542 34.7292 108.219 34.7188C107.125 34.7188 106.156 34.4844 105.312 34.0156C104.469 33.5365 103.802 32.8073 103.312 31.8281C102.833 30.849 102.594 29.6146 102.594 28.125V17.0312H105.25V27.9688C105.25 29.2292 105.609 30.2396 106.328 31C107.057 31.7604 107.979 32.1354 109.094 32.125C109.76 32.125 110.438 31.9583 111.125 31.625C111.823 31.2812 112.406 30.7604 112.875 30.0625C113.354 29.3542 113.594 28.4583 113.594 27.375ZM124.812 34.9062C123.708 34.9062 122.703 34.6979 121.797 34.2812C120.891 33.8542 120.172 33.2396 119.641 32.4375C119.109 31.6354 118.844 30.6667 118.844 29.5312C118.844 28.5312 119.042 27.724 119.438 27.1094C119.833 26.4844 120.359 25.9948 121.016 25.6406C121.682 25.276 122.411 25.0052 123.203 24.8281C124.005 24.651 124.812 24.5104 125.625 24.4062C126.688 24.2708 127.547 24.1667 128.203 24.0938C128.87 24.0208 129.354 23.8958 129.656 23.7188C129.969 23.5417 130.125 23.2396 130.125 22.8125V22.7188C130.125 21.6042 129.818 20.7396 129.203 20.125C128.599 19.5 127.677 19.1875 126.438 19.1875C125.167 19.1875 124.167 19.4688 123.438 20.0312C122.708 20.5833 122.198 21.1771 121.906 21.8125L119.344 20.9062C119.802 19.8438 120.411 19.0156 121.172 18.4219C121.943 17.8281 122.776 17.4115 123.672 17.1719C124.578 16.9323 125.469 16.8125 126.344 16.8125C126.906 16.8125 127.552 16.8802 128.281 17.0156C129.01 17.1406 129.719 17.4115 130.406 17.8281C131.104 18.2344 131.677 18.8542 132.125 19.6875C132.583 20.5104 132.812 21.6146 132.812 23V34.5H130.125V32.125H130C129.823 32.5 129.521 32.9062 129.094 33.3438C128.667 33.7708 128.099 34.1406 127.391 34.4531C126.693 34.7552 125.833 34.9062 124.812 34.9062ZM125.219 32.5C126.281 32.5 127.177 32.2917 127.906 31.875C128.635 31.4583 129.188 30.9219 129.562 30.2656C129.938 29.599 130.125 28.9062 130.125 28.1875V25.7188C130.01 25.8542 129.76 25.9792 129.375 26.0938C129 26.1979 128.562 26.2917 128.062 26.375C127.573 26.4583 127.094 26.5312 126.625 26.5938C126.156 26.6458 125.781 26.6875 125.5 26.7188C124.802 26.8125 124.151 26.9635 123.547 27.1719C122.943 27.3698 122.453 27.6667 122.078 28.0625C121.714 28.4583 121.531 29 121.531 29.6875C121.531 30.6146 121.875 31.3177 122.562 31.7969C123.26 32.2656 124.146 32.5 125.219 32.5ZM138.906 11.2188V34.5H136.25V11.2188H138.906ZM142.344 34.5V17.0312H145V34.5H142.344ZM143.688 14.125C143.167 14.125 142.719 13.9479 142.344 13.5938C141.969 13.2396 141.781 12.8125 141.781 12.3125C141.781 11.8125 141.969 11.3854 142.344 11.0312C142.719 10.6771 143.167 10.5 143.688 10.5C144.208 10.5 144.656 10.6771 145.031 11.0312C145.406 11.3854 145.594 11.8125 145.594 12.3125C145.594 12.8125 145.406 13.2396 145.031 13.5938C144.656 13.9479 144.208 14.125 143.688 14.125ZM156 17.0312V19.3125H146.969V17.0312H156ZM149.594 12.875H152.25V29.5C152.25 30.4062 152.438 31.0729 152.812 31.5C153.188 31.9167 153.781 32.125 154.594 32.125C154.771 32.125 154.953 32.1146 155.141 32.0938C155.339 32.0729 155.552 32.0417 155.781 32L156.344 34.4062C156.094 34.5 155.786 34.5729 155.422 34.625C155.068 34.6875 154.708 34.7188 154.344 34.7188C152.938 34.7188 151.792 34.3021 150.906 33.4688C150.031 32.6354 149.594 31.5521 149.594 30.2188V12.875ZM160.281 41.0312C159.823 41.0417 159.417 41.0104 159.062 40.9375C158.708 40.8646 158.458 40.7917 158.312 40.7188L159 38.375L159.266 38.4375C160.161 38.6458 160.911 38.599 161.516 38.2969C162.13 38.0052 162.667 37.2292 163.125 35.9688L163.625 34.5938L157.188 17.0312H160.094L164.906 30.9688H165.094L169.906 17.0312H172.812L165.406 37.0312C165.073 37.9375 164.661 38.6875 164.172 39.2812C163.682 39.875 163.115 40.3125 162.469 40.5938C161.823 40.8854 161.094 41.0312 160.281 41.0312Z" fill="#212529"/>
</svg>
