<svg width="121" height="29" viewBox="0 0 121 29" fill="none" xmlns="http://www.w3.org/2000/svg">
<path d="M34.442 11.173C33.7069 11.173 33.0511 10.993 32.4746 10.6332C31.8981 10.2734 31.4435 9.76269 31.1108 9.10109C30.7819 8.43562 30.6175 7.64827 30.6175 6.73905C30.6175 5.82595 30.7819 5.03667 31.1108 4.3712C31.4435 3.70572 31.8981 3.19308 32.4746 2.83326C33.0511 2.47344 33.7069 2.29353 34.442 2.29353C35.181 2.29353 35.8368 2.47344 36.4094 2.83326C36.9821 3.19308 37.4328 3.70572 37.7617 4.3712C38.0905 5.03667 38.255 5.82595 38.255 6.73905C38.255 7.64827 38.0905 8.43562 37.7617 9.10109C37.4328 9.76269 36.9821 10.2734 36.4094 10.6332C35.8368 10.993 35.181 11.173 34.442 11.173ZM34.442 10.198C34.9644 10.198 35.4364 10.0664 35.8581 9.80332C36.2837 9.53636 36.6203 9.14558 36.8679 8.631C37.1194 8.11642 37.2451 7.48577 37.2451 6.73905C37.2451 5.98845 37.1194 5.35587 36.8679 4.84129C36.6203 4.32284 36.2837 3.93206 35.8581 3.66897C35.4364 3.40201 34.9644 3.26852 34.442 3.26852C33.9197 3.26852 33.4458 3.40201 33.0202 3.66897C32.5946 3.93206 32.256 4.32284 32.0045 4.84129C31.7531 5.35587 31.6273 5.98845 31.6273 6.73905C31.6273 7.48577 31.7531 8.11642 32.0045 8.631C32.256 9.14558 32.5946 9.53636 33.0202 9.80332C33.4458 10.0664 33.9197 10.198 34.442 10.198ZM41.2264 11.2078C40.8163 11.2078 40.4429 11.1304 40.1063 10.9756C39.7697 10.817 39.5027 10.5887 39.3054 10.2908C39.1081 9.9929 39.0094 9.63308 39.0094 9.21136C39.0094 8.83993 39.0829 8.54008 39.23 8.31181C39.377 8.07966 39.5724 7.89782 39.8161 7.76627C40.0637 7.63086 40.3346 7.53026 40.6286 7.46449C40.9265 7.39872 41.2264 7.34648 41.5282 7.30779C41.9228 7.2575 42.242 7.21881 42.4858 7.19172C42.7334 7.16464 42.9133 7.11821 43.0255 7.05244C43.1416 6.98666 43.1996 6.87446 43.1996 6.71583V6.68101C43.1996 6.26702 43.0855 5.94589 42.8572 5.71762C42.6328 5.48548 42.2904 5.36941 41.8299 5.36941C41.3579 5.36941 40.9865 5.47387 40.7157 5.6828C40.4448 5.88786 40.2553 6.10839 40.1469 6.3444L39.1951 6.0078C39.3654 5.61316 39.5917 5.30557 39.8742 5.08503C40.1605 4.8645 40.47 4.70974 40.8027 4.62075C41.1393 4.53176 41.4701 4.48727 41.7951 4.48727C42.0041 4.48727 42.2439 4.51242 42.5148 4.56272C42.7856 4.60914 43.0487 4.70974 43.3041 4.8645C43.5633 5.01539 43.7761 5.2456 43.9424 5.55512C44.1127 5.86078 44.1978 6.27089 44.1978 6.78547V11.0569H43.1996V10.1747H43.1532C43.0874 10.314 42.9752 10.4649 42.8166 10.6274C42.6579 10.7861 42.4471 10.9234 42.184 11.0395C41.9247 11.1517 41.6055 11.2078 41.2264 11.2078ZM41.3773 10.314C41.7719 10.314 42.1047 10.2367 42.3755 10.0819C42.6463 9.92713 42.8514 9.72787 42.9907 9.48412C43.1299 9.23651 43.1996 8.97921 43.1996 8.71225V7.79529C43.157 7.84559 43.0642 7.89202 42.921 7.93458C42.7817 7.97327 42.6192 8.00809 42.4335 8.03904C42.2517 8.06999 42.0737 8.09708 41.8996 8.12029C41.7255 8.13963 41.5862 8.15511 41.4817 8.16672C41.2225 8.20154 40.9807 8.25764 40.7563 8.33502C40.5319 8.40853 40.35 8.5188 40.2108 8.66582C40.0753 8.81285 40.0076 9.01404 40.0076 9.26939C40.0076 9.61374 40.1353 9.8749 40.3907 10.0529C40.6499 10.227 40.9788 10.314 41.3773 10.314ZM46.4031 8.68904L46.3799 7.45869H46.5889L49.421 4.56852H50.6513L47.6335 7.63279H47.5406L46.4031 8.68904ZM45.4746 11.0569V2.4096H46.4612V11.0569H45.4746ZM49.5835 11.0569L47.0531 7.85333L47.7612 7.1569L50.8603 11.0569H49.5835ZM52.3692 2.4096V11.0569H51.3826V2.4096H52.3692ZM55.5495 11.2078C55.1394 11.2078 54.7661 11.1304 54.4295 10.9756C54.0928 10.817 53.8259 10.5887 53.6286 10.2908C53.4312 9.9929 53.3326 9.63308 53.3326 9.21136C53.3326 8.83993 53.4061 8.54008 53.5531 8.31181C53.7001 8.07966 53.8955 7.89782 54.1393 7.76627C54.3869 7.63086 54.6577 7.53026 54.9518 7.46449C55.2497 7.39872 55.5495 7.34648 55.8513 7.30779C56.246 7.2575 56.5652 7.21881 56.8089 7.19172C57.0565 7.16464 57.2364 7.11821 57.3486 7.05244C57.4647 6.98666 57.5227 6.87446 57.5227 6.71583V6.68101C57.5227 6.26702 57.4086 5.94589 57.1803 5.71762C56.9559 5.48548 56.6135 5.36941 56.1531 5.36941C55.6811 5.36941 55.3097 5.47387 55.0388 5.6828C54.768 5.88786 54.5784 6.10839 54.4701 6.3444L53.5183 6.0078C53.6885 5.61316 53.9149 5.30557 54.1973 5.08503C54.4836 4.8645 54.7931 4.70974 55.1259 4.62075C55.4625 4.53176 55.7933 4.48727 56.1183 4.48727C56.3272 4.48727 56.5671 4.51242 56.8379 4.56272C57.1088 4.60914 57.3718 4.70974 57.6272 4.8645C57.8864 5.01539 58.0992 5.2456 58.2656 5.55512C58.4358 5.86078 58.521 6.27089 58.521 6.78547V11.0569H57.5227V10.1747H57.4763C57.4105 10.314 57.2983 10.4649 57.1397 10.6274C56.9811 10.7861 56.7702 10.9234 56.5071 11.0395C56.2479 11.1517 55.9287 11.2078 55.5495 11.2078ZM55.7004 10.314C56.0951 10.314 56.4278 10.2367 56.6986 10.0819C56.9695 9.92713 57.1745 9.72787 57.3138 9.48412C57.4531 9.23651 57.5227 8.97921 57.5227 8.71225V7.79529C57.4802 7.84559 57.3873 7.89202 57.2442 7.93458C57.1049 7.97327 56.9424 8.00809 56.7567 8.03904C56.5748 8.06999 56.3969 8.09708 56.2227 8.12029C56.0486 8.13963 55.9094 8.15511 55.8049 8.16672C55.5457 8.20154 55.3039 8.25764 55.0794 8.33502C54.855 8.40853 54.6732 8.5188 54.5339 8.66582C54.3985 8.81285 54.3308 9.01404 54.3308 9.26939C54.3308 9.61374 54.4585 9.8749 54.7138 10.0529C54.973 10.227 55.3019 10.314 55.7004 10.314ZM60.7843 7.1569V11.0569H59.7977V4.56852H60.7495V5.58994H60.8424C60.9933 5.25721 61.2235 4.99024 61.533 4.78905C61.8425 4.58786 62.243 4.48727 62.7343 4.48727C63.1715 4.48727 63.5546 4.57626 63.8834 4.75423C64.2123 4.93221 64.4677 5.20304 64.6495 5.56673C64.8352 5.92655 64.9281 6.38309 64.9281 6.93637V11.0569H63.9415V7.00601C63.9415 6.49917 63.808 6.10259 63.541 5.81628C63.2741 5.5261 62.9104 5.38102 62.45 5.38102C62.1327 5.38102 61.8483 5.45066 61.5968 5.58994C61.3453 5.72923 61.1461 5.93042 60.9991 6.19351C60.8559 6.45661 60.7843 6.77774 60.7843 7.1569ZM68.6423 11.1962C68.1007 11.1962 67.6228 11.0588 67.2089 10.7841C66.7949 10.5094 66.4718 10.1206 66.2397 9.61761C66.0075 9.11076 65.8915 8.51493 65.8915 7.83011C65.8915 7.14916 66.0075 6.55914 66.2397 6.06003C66.4757 5.55706 66.8007 5.17015 67.2147 4.89932C67.6287 4.62462 68.1084 4.48727 68.6539 4.48727C69.0795 4.48727 69.4142 4.55691 69.658 4.6962C69.9056 4.83548 70.0952 4.99411 70.2267 5.17209C70.3583 5.34619 70.4608 5.48935 70.5343 5.60155H70.6155V2.4096H71.6021V11.0569H70.6504V10.0587H70.5343C70.4608 10.1747 70.3563 10.3237 70.2209 10.5055C70.0855 10.6835 69.892 10.8441 69.6405 10.9872C69.3929 11.1265 69.0602 11.1962 68.6423 11.1962ZM68.77 10.3024C69.1724 10.3024 69.5109 10.198 69.7856 9.98903C70.0603 9.77624 70.2693 9.48412 70.4124 9.1127C70.5556 8.7374 70.6272 8.306 70.6272 7.81851C70.6272 7.33101 70.5575 6.90541 70.4182 6.54172C70.2789 6.17417 70.07 5.88979 69.7914 5.6886C69.5167 5.48354 69.1763 5.38102 68.77 5.38102C68.3522 5.38102 68.0039 5.48935 67.7254 5.70601C67.4468 5.92268 67.2379 6.21479 67.0986 6.58235C66.9593 6.94991 66.8897 7.36196 66.8897 7.81851C66.8897 8.27892 66.9593 8.69678 67.0986 9.07207C67.2418 9.44737 67.4526 9.74722 67.7312 9.97162C68.0098 10.1922 68.356 10.3024 68.77 10.3024Z" fill="white"/>
<path d="M31.0924 25.0569V16.89H35.8336V17.5642H31.8379V20.6117H35.5815V21.2804H31.8379V24.3882H35.9103V25.0569H31.0924ZM37.9712 21.2311V25.0569H37.2642V18.929H37.9493V19.8991H38.0206C38.1631 19.5812 38.386 19.3273 38.6893 19.1373C38.9926 18.9473 39.3689 18.8522 39.8184 18.8522C40.2313 18.8522 40.593 18.9381 40.9036 19.1099C41.2179 19.2816 41.4627 19.5337 41.6381 19.8663C41.8135 20.1988 41.9012 20.608 41.9012 21.094V25.0569H41.1941V21.1379C41.1941 20.6373 41.0535 20.239 40.7721 19.943C40.4907 19.647 40.1144 19.499 39.643 19.499C39.3214 19.499 39.0346 19.5703 38.7824 19.7128C38.5303 19.8516 38.3312 20.0508 38.185 20.3102C38.0425 20.566 37.9712 20.873 37.9712 21.2311ZM45.9024 25.1884C45.3324 25.1884 44.8373 25.0551 44.417 24.7883C43.9968 24.5179 43.6734 24.1452 43.4469 23.6702C43.2203 23.1951 43.1071 22.6488 43.1071 22.0313C43.1071 21.4138 43.2185 20.8656 43.4414 20.387C43.668 19.9083 43.9822 19.5319 44.3842 19.2579C44.7861 18.9838 45.252 18.8468 45.7818 18.8468C46.1107 18.8468 46.4304 18.9089 46.741 19.0331C47.0516 19.1537 47.3312 19.3382 47.5797 19.5867C47.8281 19.8352 48.0236 20.1513 48.1661 20.535C48.3086 20.915 48.3799 21.3681 48.3799 21.8943V22.2122H43.5949V21.5873H47.9962L47.6728 21.8285C47.6728 21.3827 47.5961 20.9844 47.4426 20.6336C47.2928 20.2828 47.0772 20.0051 46.7959 19.8005C46.5145 19.5959 46.1765 19.4935 45.7818 19.4935C45.3909 19.4935 45.0474 19.5977 44.7514 19.806C44.4554 20.0106 44.2252 20.2846 44.0608 20.6281C43.9 20.968 43.8196 21.3407 43.8196 21.7463V22.1135C43.8196 22.6032 43.9036 23.0307 44.0717 23.3961C44.2435 23.7579 44.4846 24.0392 44.7952 24.2402C45.1095 24.4412 45.4786 24.5417 45.9024 24.5417C46.1911 24.5417 46.4451 24.496 46.6643 24.4046C46.8836 24.3133 47.0681 24.1909 47.2179 24.0374C47.3677 23.8803 47.481 23.7104 47.5577 23.5276L48.2319 23.7524C48.1369 24.0082 47.9834 24.2457 47.7715 24.4649C47.5632 24.6805 47.3001 24.8559 46.9822 24.9911C46.668 25.1227 46.308 25.1884 45.9024 25.1884ZM49.5638 25.0569V18.929H50.249V19.8772H50.3038C50.428 19.5666 50.6418 19.3181 50.9451 19.1318C51.252 18.9418 51.5973 18.8468 51.981 18.8468C52.0395 18.8468 52.1034 18.8468 52.1728 18.8468C52.2459 18.8468 52.3062 18.8486 52.3537 18.8522V19.5703C52.3245 19.5666 52.2697 19.5611 52.1893 19.5538C52.1089 19.5429 52.0194 19.5374 51.9207 19.5374C51.6065 19.5374 51.3233 19.605 51.0711 19.7402C50.8227 19.8754 50.6272 20.0617 50.4847 20.2993C50.3421 20.5331 50.2709 20.8017 50.2709 21.105V25.0569H49.5638ZM55.3629 27.4795C54.738 27.4795 54.2283 27.3626 53.8336 27.1288C53.439 26.8949 53.1521 26.6026 52.9731 26.2518L53.5541 25.8681C53.6381 26.0252 53.7551 26.1769 53.9049 26.323C54.0547 26.4728 54.2484 26.5953 54.4859 26.6903C54.7234 26.7889 55.0157 26.8383 55.3629 26.8383C55.9073 26.8383 56.3458 26.7031 56.6783 26.4326C57.0145 26.1622 57.1826 25.742 57.1826 25.172V23.7907H57.1113C57.0309 23.9771 56.914 24.1635 56.7605 24.3498C56.6071 24.5325 56.4061 24.686 56.1576 24.8102C55.9091 24.9308 55.6004 24.9911 55.2313 24.9911C54.7417 24.9911 54.3068 24.8705 53.9268 24.6294C53.5504 24.3882 53.2526 24.0429 53.0334 23.5934C52.8178 23.1403 52.71 22.6032 52.71 21.982C52.71 21.3608 52.816 20.8163 53.0279 20.3486C53.2398 19.8772 53.5358 19.51 53.9158 19.2469C54.2959 18.9801 54.738 18.8468 55.2423 18.8468C55.6186 18.8468 55.9311 18.9144 56.1795 19.0496C56.428 19.1811 56.6272 19.3437 56.777 19.5374C56.9268 19.7311 57.0437 19.9192 57.1278 20.1019H57.2045V18.929H57.8842V25.2158C57.8842 25.7347 57.7746 26.1604 57.5553 26.4929C57.3397 26.8291 57.0419 27.0776 56.6619 27.2384C56.2819 27.3992 55.8489 27.4795 55.3629 27.4795ZM55.319 24.3443C55.9073 24.3443 56.3659 24.1324 56.6948 23.7085C57.0236 23.2847 57.1881 22.7037 57.1881 21.9655C57.1881 21.4868 57.115 21.063 56.9688 20.6939C56.8263 20.3212 56.6144 20.0289 56.333 19.8169C56.0553 19.6013 55.7173 19.4935 55.319 19.4935C54.9061 19.4935 54.559 19.605 54.2776 19.8279C53.9962 20.0471 53.7825 20.3431 53.6363 20.7158C53.4938 21.0885 53.4225 21.5051 53.4225 21.9655C53.4225 22.4333 53.4956 22.8462 53.6418 23.2043C53.7879 23.5624 54.0017 23.8419 54.2831 24.0429C54.5681 24.2439 54.9134 24.3443 55.319 24.3443ZM59.9122 27.348C59.7733 27.3517 59.6418 27.3407 59.5176 27.3151C59.397 27.2895 59.3001 27.2585 59.2271 27.2219L59.4189 26.6026L59.5011 26.6245C59.8373 26.7231 60.1223 26.7104 60.3562 26.5861C60.5937 26.4655 60.7928 26.1842 60.9536 25.742L61.1783 25.1172L58.9256 18.929H59.6984L61.5127 24.1251H61.5675L63.3872 18.929H64.1546L61.5675 26.0216C61.4579 26.3175 61.3227 26.5642 61.1619 26.7615C61.0048 26.9588 60.8221 27.105 60.6138 27.2C60.4055 27.2987 60.1716 27.348 59.9122 27.348ZM71.3129 25.1665C70.6296 25.1665 70.0212 24.9948 69.4877 24.6513C68.9542 24.3078 68.5358 23.8236 68.2326 23.1988C67.9329 22.5703 67.7831 21.8303 67.7831 20.9789C67.7831 20.1239 67.9329 19.3821 68.2326 18.7536C68.5358 18.1251 68.9542 17.6391 69.4877 17.2956C70.0212 16.9521 70.6296 16.7804 71.3129 16.7804C71.7478 16.7804 72.1461 16.848 72.5078 16.9832C72.8732 17.1184 73.1966 17.3066 73.478 17.5477C73.7594 17.7889 73.9896 18.0721 74.1686 18.3973C74.3513 18.7189 74.4756 19.0678 74.5413 19.4442H73.7904C73.7356 19.1628 73.6351 18.9034 73.489 18.6659C73.3428 18.4284 73.1601 18.2201 72.9408 18.041C72.7253 17.862 72.4804 17.7231 72.2064 17.6245C71.9323 17.5258 71.6345 17.4765 71.3129 17.4765C70.7977 17.4765 70.3263 17.6117 69.8988 17.8821C69.4749 18.1488 69.1351 18.5435 68.8793 19.066C68.6272 19.5849 68.5011 20.2225 68.5011 20.9789C68.5011 21.7353 68.6272 22.373 68.8793 22.8918C69.1351 23.4107 69.4749 23.8035 69.8988 24.0703C70.3263 24.337 70.7977 24.4704 71.3129 24.4704C71.6345 24.4704 71.9323 24.4211 72.2064 24.3224C72.4804 24.2238 72.7253 24.0849 72.9408 23.9058C73.1601 23.7268 73.3428 23.5185 73.489 23.281C73.6351 23.0435 73.7356 22.784 73.7904 22.5027H74.5413C74.4756 22.879 74.3513 23.2298 74.1686 23.5551C73.9896 23.8766 73.7594 24.158 73.478 24.3991C73.1966 24.6403 72.8732 24.8285 72.5078 24.9637C72.1461 25.0989 71.7478 25.1665 71.3129 25.1665ZM78.1863 25.1884C77.6564 25.1884 77.1887 25.0551 76.7831 24.7883C76.3775 24.5179 76.0596 24.1452 75.8294 23.6702C75.6028 23.1915 75.4896 22.6434 75.4896 22.0258C75.4896 21.3973 75.6028 20.8456 75.8294 20.3705C76.0596 19.8918 76.3775 19.5191 76.7831 19.2524C77.1887 18.982 77.6564 18.8468 78.1863 18.8468C78.7161 18.8468 79.182 18.982 79.584 19.2524C79.9896 19.5191 80.3075 19.8918 80.5377 20.3705C80.7679 20.8456 80.883 21.3973 80.883 22.0258C80.883 22.6434 80.7679 23.1915 80.5377 23.6702C80.3111 24.1452 79.9951 24.5179 79.5894 24.7883C79.1838 25.0551 78.7161 25.1884 78.1863 25.1884ZM78.1863 24.5417C78.6138 24.5417 78.9737 24.4284 79.2661 24.2018C79.562 23.9716 79.7868 23.6647 79.9402 23.281C80.0937 22.8973 80.1704 22.4789 80.1704 22.0258C80.1704 21.5654 80.0937 21.1434 79.9402 20.7597C79.7868 20.376 79.562 20.0691 79.2661 19.8388C78.9701 19.6086 78.6102 19.4935 78.1863 19.4935C77.7624 19.4935 77.4025 19.6105 77.1065 19.8443C76.8142 20.0745 76.5894 20.3815 76.4323 20.7652C76.2788 21.1452 76.2021 21.5654 76.2021 22.0258C76.2021 22.4789 76.2788 22.8973 76.4323 23.281C76.5858 23.6647 76.8105 23.9716 77.1065 24.2018C77.4025 24.4284 77.7624 24.5417 78.1863 24.5417ZM82.7959 21.2311V25.0569H82.0888V18.929H82.774V19.8991H82.8452C82.9878 19.5812 83.2107 19.3273 83.5139 19.1373C83.8172 18.9473 84.1936 18.8522 84.6431 18.8522C85.056 18.8522 85.4177 18.9381 85.7283 19.1099C86.0426 19.2816 86.2874 19.5337 86.4628 19.8663C86.6382 20.1988 86.7259 20.608 86.7259 21.094V25.0569H86.0188V21.1379C86.0188 20.6373 85.8781 20.239 85.5968 19.943C85.3154 19.647 84.939 19.499 84.4677 19.499C84.1461 19.499 83.8593 19.5703 83.6071 19.7128C83.355 19.8516 83.1558 20.0508 83.0097 20.3102C82.8672 20.566 82.7959 20.873 82.7959 21.2311ZM92.3605 20.2828L91.7137 20.4582C91.6187 20.1842 91.4598 19.9521 91.2369 19.7621C91.0176 19.5684 90.7015 19.4716 90.2886 19.4716C89.8757 19.4716 89.5359 19.5721 89.2691 19.7731C89.0024 19.9704 88.869 20.2244 88.869 20.535C88.869 20.7944 88.9585 21.0082 89.1376 21.1762C89.3203 21.3407 89.6016 21.4704 89.9817 21.5654L90.908 21.7901C91.4196 21.918 91.8032 22.1172 92.059 22.3876C92.3185 22.6543 92.4482 22.9923 92.4482 23.4016C92.4482 23.7451 92.3513 24.052 92.1577 24.3224C91.9677 24.5928 91.7027 24.8048 91.3629 24.9582C91.0231 25.1117 90.6284 25.1884 90.179 25.1884C89.5797 25.1884 89.0864 25.0532 88.6991 24.7828C88.3118 24.5088 88.0633 24.1178 87.9537 23.6099L88.6333 23.4454C88.7174 23.8072 88.8891 24.0812 89.1485 24.2676C89.408 24.454 89.7478 24.5471 90.168 24.5471C90.6358 24.5471 91.0121 24.4412 91.2971 24.2292C91.5822 24.0173 91.7247 23.7542 91.7247 23.44C91.7247 22.9357 91.3903 22.6013 90.7216 22.4369L89.7241 22.1957C89.1906 22.0678 88.7959 21.8669 88.5401 21.5928C88.2843 21.3188 88.1565 20.9771 88.1565 20.5678C88.1565 20.2317 88.2478 19.9339 88.4305 19.6744C88.6169 19.415 88.8708 19.2122 89.1924 19.066C89.5139 18.9198 89.8794 18.8468 90.2886 18.8468C90.8513 18.8468 91.3008 18.9765 91.637 19.2359C91.9731 19.4917 92.2143 19.8407 92.3605 20.2828ZM97.5456 22.7219V18.929H98.2527V25.0569H97.5456V24.0374H97.4908C97.3447 24.3516 97.1163 24.6147 96.8057 24.8267C96.4951 25.035 96.1151 25.1373 95.6656 25.1336C95.2746 25.1336 94.9275 25.0496 94.6242 24.8815C94.3246 24.7097 94.087 24.4576 93.9116 24.1251C93.7399 23.7889 93.654 23.3797 93.654 22.8973V18.929H94.3611V22.859C94.3611 23.334 94.5018 23.7177 94.7831 24.01C95.0682 24.3023 95.4299 24.4467 95.8684 24.443C96.1461 24.443 96.4129 24.3772 96.6686 24.2457C96.9244 24.1141 97.1345 23.9205 97.299 23.6647C97.4634 23.4089 97.5456 23.0946 97.5456 22.7219ZM100.489 16.89V25.0569H99.7819V16.89H100.489ZM104.424 18.929V19.5484H101.503V18.929H104.424ZM102.418 17.471H103.125V23.4564C103.125 23.7889 103.208 24.0392 103.372 24.2073C103.537 24.3717 103.765 24.454 104.057 24.454C104.123 24.454 104.189 24.4503 104.255 24.443C104.324 24.432 104.397 24.4174 104.474 24.3991L104.627 25.0404C104.543 25.0733 104.446 25.0989 104.337 25.1172C104.227 25.1354 104.114 25.1446 103.997 25.1446C103.544 25.1446 103.167 25.0057 102.868 24.728C102.568 24.4467 102.418 24.0794 102.418 23.6263V17.471ZM105.691 25.0569V18.929H106.398V25.0569H105.691ZM106.047 17.8821C105.901 17.8821 105.775 17.8328 105.669 17.7341C105.566 17.6318 105.515 17.5094 105.515 17.3669C105.515 17.228 105.566 17.1092 105.669 17.0106C105.775 16.9119 105.901 16.8626 106.047 16.8626C106.193 16.8626 106.317 16.9119 106.42 17.0106C106.522 17.1092 106.573 17.228 106.573 17.3669C106.573 17.5094 106.522 17.6318 106.42 17.7341C106.317 17.8328 106.193 17.8821 106.047 17.8821ZM108.634 21.2311V25.0569H107.927V18.929H108.612V19.8991H108.683C108.826 19.5812 109.049 19.3273 109.352 19.1373C109.655 18.9473 110.032 18.8522 110.481 18.8522C110.894 18.8522 111.256 18.9381 111.566 19.1099C111.881 19.2816 112.125 19.5337 112.301 19.8663C112.476 20.1988 112.564 20.608 112.564 21.094V25.0569H111.857V21.1379C111.857 20.6373 111.716 20.239 111.435 19.943C111.153 19.647 110.777 19.499 110.306 19.499C109.984 19.499 109.697 19.5703 109.445 19.7128C109.193 19.8516 108.994 20.0508 108.848 20.3102C108.705 20.566 108.634 20.873 108.634 21.2311ZM116.423 27.4795C115.798 27.4795 115.288 27.3626 114.893 27.1288C114.499 26.8949 114.212 26.6026 114.033 26.2518L114.614 25.8681C114.698 26.0252 114.815 26.1769 114.965 26.323C115.114 26.4728 115.308 26.5953 115.546 26.6903C115.783 26.7889 116.075 26.8383 116.423 26.8383C116.967 26.8383 117.406 26.7031 117.738 26.4326C118.074 26.1622 118.242 25.742 118.242 25.172V23.7907H118.171C118.091 23.9771 117.974 24.1635 117.82 24.3498C117.667 24.5325 117.466 24.686 117.217 24.8102C116.969 24.9308 116.66 24.9911 116.291 24.9911C115.801 24.9911 115.367 24.8705 114.987 24.6294C114.61 24.3882 114.312 24.0429 114.093 23.5934C113.878 23.1403 113.77 22.6032 113.77 21.982C113.77 21.3608 113.876 20.8163 114.088 20.3486C114.3 19.8772 114.596 19.51 114.976 19.2469C115.356 18.9801 115.798 18.8468 116.302 18.8468C116.678 18.8468 116.991 18.9144 117.239 19.0496C117.488 19.1811 117.687 19.3437 117.837 19.5374C117.987 19.7311 118.104 19.9192 118.188 20.1019H118.264V18.929H118.944V25.2158C118.944 25.7347 118.834 26.1604 118.615 26.4929C118.399 26.8291 118.102 27.0776 117.722 27.2384C117.342 27.3992 116.909 27.4795 116.423 27.4795ZM116.379 24.3443C116.967 24.3443 117.426 24.1324 117.755 23.7085C118.083 23.2847 118.248 22.7037 118.248 21.9655C118.248 21.4868 118.175 21.063 118.029 20.6939C117.886 20.3212 117.674 20.0289 117.393 19.8169C117.115 19.6013 116.777 19.4935 116.379 19.4935C115.966 19.4935 115.619 19.605 115.337 19.8279C115.056 20.0471 114.842 20.3431 114.696 20.7158C114.554 21.0885 114.482 21.5051 114.482 21.9655C114.482 22.4333 114.555 22.8462 114.702 23.2043C114.848 23.5624 115.061 23.8419 115.343 24.0429C115.628 24.2439 115.973 24.3443 116.379 24.3443Z" fill="#A6A6AB"/>
<rect x="0.21698" y="8.94598" width="3.82609" height="4.10251" fill="white"/>
<rect x="0.21698" y="13.0485" width="3.82609" height="4.10251" fill="white"/>
<rect x="0.21698" y="17.1509" width="3.82609" height="4.10251" fill="white"/>
<rect x="4.04312" y="4.84332" width="3.82609" height="4.10251" fill="white"/>
<rect x="15.5214" y="8.94598" width="3.82609" height="4.10251" fill="#A6A6AB"/>
<rect x="15.5214" y="13.0485" width="3.82609" height="4.10251" fill="#A6A6AB"/>
<rect x="15.5214" y="17.1509" width="3.82609" height="4.10251" fill="#A6A6AB"/>
<rect x="11.6952" y="21.2535" width="3.82609" height="4.10251" fill="#A6A6AB"/>
<rect x="7.8692" y="21.2535" width="3.82609" height="4.10251" fill="#A6A6AB"/>
<rect x="7.8692" y="4.84332" width="3.82609" height="4.10251" fill="white"/>
</svg>
